<mxfile host="app.diagrams.net" agent="Mozilla/5.0 (Windows NT 10.0; Win64; x64) AppleWebKit/537.36 (KHTML, like Gecko) Chrome/132.0.0.0 Safari/537.36" version="26.0.10">
  <diagram name="PÃ¡gina-1" id="3m-QTRsYHE68HCL4DWsZ">
    <mxGraphModel dx="546" dy="757" grid="1" gridSize="10" guides="1" tooltips="1" connect="1" arrows="1" fold="1" page="1" pageScale="1" pageWidth="827" pageHeight="1169" math="0" shadow="0">
      <root>
        <mxCell id="0" />
        <mxCell id="1" parent="0" />
        <mxCell id="K9HgkhQQMpnSzLmHmkva-1" value="A" style="ellipse;whiteSpace=wrap;html=1;aspect=fixed;labelBackgroundColor=none;" vertex="1" parent="1">
          <mxGeometry x="170" y="330" width="80" height="80" as="geometry" />
        </mxCell>
        <mxCell id="K9HgkhQQMpnSzLmHmkva-2" value="F" style="ellipse;whiteSpace=wrap;html=1;aspect=fixed;labelBackgroundColor=none;" vertex="1" parent="1">
          <mxGeometry x="340" y="470" width="80" height="80" as="geometry" />
        </mxCell>
        <mxCell id="K9HgkhQQMpnSzLmHmkva-3" value="C" style="ellipse;whiteSpace=wrap;html=1;aspect=fixed;labelBackgroundColor=none;" vertex="1" parent="1">
          <mxGeometry x="520" y="330" width="80" height="80" as="geometry" />
        </mxCell>
        <mxCell id="K9HgkhQQMpnSzLmHmkva-4" value="B" style="ellipse;whiteSpace=wrap;html=1;aspect=fixed;labelBackgroundColor=none;" vertex="1" parent="1">
          <mxGeometry x="340" y="330" width="80" height="80" as="geometry" />
        </mxCell>
        <mxCell id="K9HgkhQQMpnSzLmHmkva-6" value="" style="endArrow=classic;html=1;rounded=0;exitX=0.989;exitY=0.365;exitDx=0;exitDy=0;entryX=0.013;entryY=0.371;entryDx=0;entryDy=0;exitPerimeter=0;entryPerimeter=0;labelBackgroundColor=none;fontColor=default;" edge="1" parent="1" source="K9HgkhQQMpnSzLmHmkva-1" target="K9HgkhQQMpnSzLmHmkva-4">
          <mxGeometry width="50" height="50" relative="1" as="geometry">
            <mxPoint x="380" y="590" as="sourcePoint" />
            <mxPoint x="430" y="540" as="targetPoint" />
          </mxGeometry>
        </mxCell>
        <mxCell id="K9HgkhQQMpnSzLmHmkva-13" value="9V" style="edgeLabel;html=1;align=center;verticalAlign=middle;resizable=0;points=[];labelBackgroundColor=none;" vertex="1" connectable="0" parent="K9HgkhQQMpnSzLmHmkva-6">
          <mxGeometry x="0.0513" y="-2" relative="1" as="geometry">
            <mxPoint x="-8" y="-14" as="offset" />
          </mxGeometry>
        </mxCell>
        <mxCell id="K9HgkhQQMpnSzLmHmkva-7" value="" style="endArrow=classic;html=1;rounded=0;exitX=0.985;exitY=0.375;exitDx=0;exitDy=0;entryX=0.012;entryY=0.37;entryDx=0;entryDy=0;exitPerimeter=0;entryPerimeter=0;labelBackgroundColor=none;fontColor=default;" edge="1" parent="1" source="K9HgkhQQMpnSzLmHmkva-4" target="K9HgkhQQMpnSzLmHmkva-3">
          <mxGeometry width="50" height="50" relative="1" as="geometry">
            <mxPoint x="380" y="590" as="sourcePoint" />
            <mxPoint x="430" y="540" as="targetPoint" />
          </mxGeometry>
        </mxCell>
        <mxCell id="K9HgkhQQMpnSzLmHmkva-14" value="6V" style="edgeLabel;html=1;align=center;verticalAlign=middle;resizable=0;points=[];labelBackgroundColor=none;" vertex="1" connectable="0" parent="K9HgkhQQMpnSzLmHmkva-7">
          <mxGeometry x="-0.0054" y="1" relative="1" as="geometry">
            <mxPoint y="-11" as="offset" />
          </mxGeometry>
        </mxCell>
        <mxCell id="K9HgkhQQMpnSzLmHmkva-8" value="" style="endArrow=classic;html=1;rounded=0;exitX=0.025;exitY=0.658;exitDx=0;exitDy=0;entryX=0.979;entryY=0.657;entryDx=0;entryDy=0;exitPerimeter=0;entryPerimeter=0;labelBackgroundColor=none;fontColor=default;" edge="1" parent="1" source="K9HgkhQQMpnSzLmHmkva-4" target="K9HgkhQQMpnSzLmHmkva-1">
          <mxGeometry width="50" height="50" relative="1" as="geometry">
            <mxPoint x="330" y="460" as="sourcePoint" />
            <mxPoint x="400" y="460" as="targetPoint" />
          </mxGeometry>
        </mxCell>
        <mxCell id="K9HgkhQQMpnSzLmHmkva-12" value="12V" style="edgeLabel;html=1;align=center;verticalAlign=middle;resizable=0;points=[];labelBackgroundColor=none;" vertex="1" connectable="0" parent="K9HgkhQQMpnSzLmHmkva-8">
          <mxGeometry x="0.1676" y="-1" relative="1" as="geometry">
            <mxPoint x="3" y="8" as="offset" />
          </mxGeometry>
        </mxCell>
        <mxCell id="K9HgkhQQMpnSzLmHmkva-11" value="" style="endArrow=classic;html=1;rounded=0;entryX=0.981;entryY=0.627;entryDx=0;entryDy=0;entryPerimeter=0;exitX=0.017;exitY=0.628;exitDx=0;exitDy=0;exitPerimeter=0;labelBackgroundColor=none;fontColor=default;" edge="1" parent="1" source="K9HgkhQQMpnSzLmHmkva-3" target="K9HgkhQQMpnSzLmHmkva-4">
          <mxGeometry width="50" height="50" relative="1" as="geometry">
            <mxPoint x="520" y="380" as="sourcePoint" />
            <mxPoint x="560" y="480" as="targetPoint" />
          </mxGeometry>
        </mxCell>
        <mxCell id="K9HgkhQQMpnSzLmHmkva-15" value="9V" style="edgeLabel;html=1;align=center;verticalAlign=middle;resizable=0;points=[];labelBackgroundColor=none;" vertex="1" connectable="0" parent="K9HgkhQQMpnSzLmHmkva-11">
          <mxGeometry x="-0.0131" y="-1" relative="1" as="geometry">
            <mxPoint y="11" as="offset" />
          </mxGeometry>
        </mxCell>
        <mxCell id="K9HgkhQQMpnSzLmHmkva-16" value="" style="curved=1;endArrow=classic;html=1;rounded=0;exitX=0.28;exitY=0.052;exitDx=0;exitDy=0;entryX=0.746;entryY=0.061;entryDx=0;entryDy=0;entryPerimeter=0;exitPerimeter=0;labelBackgroundColor=none;fontColor=default;" edge="1" parent="1" source="K9HgkhQQMpnSzLmHmkva-3" target="K9HgkhQQMpnSzLmHmkva-1">
          <mxGeometry width="50" height="50" relative="1" as="geometry">
            <mxPoint x="310" y="250" as="sourcePoint" />
            <mxPoint x="360" y="200" as="targetPoint" />
            <Array as="points">
              <mxPoint x="380" y="190" />
            </Array>
          </mxGeometry>
        </mxCell>
        <mxCell id="K9HgkhQQMpnSzLmHmkva-17" value="12V" style="edgeLabel;html=1;align=center;verticalAlign=middle;resizable=0;points=[];labelBackgroundColor=none;" vertex="1" connectable="0" parent="K9HgkhQQMpnSzLmHmkva-16">
          <mxGeometry x="-0.2255" y="18" relative="1" as="geometry">
            <mxPoint x="-35" y="-11" as="offset" />
          </mxGeometry>
        </mxCell>
        <mxCell id="K9HgkhQQMpnSzLmHmkva-18" value="" style="endArrow=classic;html=1;rounded=0;exitX=1;exitY=1;exitDx=0;exitDy=0;entryX=0;entryY=0;entryDx=0;entryDy=0;labelBackgroundColor=none;fontColor=default;" edge="1" parent="1" source="K9HgkhQQMpnSzLmHmkva-1" target="K9HgkhQQMpnSzLmHmkva-2">
          <mxGeometry width="50" height="50" relative="1" as="geometry">
            <mxPoint x="360" y="420" as="sourcePoint" />
            <mxPoint x="410" y="370" as="targetPoint" />
          </mxGeometry>
        </mxCell>
        <mxCell id="K9HgkhQQMpnSzLmHmkva-21" value="ERRO" style="edgeLabel;html=1;align=center;verticalAlign=middle;resizable=0;points=[];labelBackgroundColor=none;" vertex="1" connectable="0" parent="K9HgkhQQMpnSzLmHmkva-18">
          <mxGeometry x="0.1583" y="-2" relative="1" as="geometry">
            <mxPoint x="-23" y="2" as="offset" />
          </mxGeometry>
        </mxCell>
        <mxCell id="K9HgkhQQMpnSzLmHmkva-19" value="" style="endArrow=classic;html=1;rounded=0;exitX=0.5;exitY=1;exitDx=0;exitDy=0;entryX=0.5;entryY=0;entryDx=0;entryDy=0;labelBackgroundColor=none;fontColor=default;" edge="1" parent="1" source="K9HgkhQQMpnSzLmHmkva-4" target="K9HgkhQQMpnSzLmHmkva-2">
          <mxGeometry width="50" height="50" relative="1" as="geometry">
            <mxPoint x="360" y="420" as="sourcePoint" />
            <mxPoint x="410" y="370" as="targetPoint" />
          </mxGeometry>
        </mxCell>
        <mxCell id="K9HgkhQQMpnSzLmHmkva-22" value="ERRO" style="edgeLabel;html=1;align=center;verticalAlign=middle;resizable=0;points=[];labelBackgroundColor=none;" vertex="1" connectable="0" parent="K9HgkhQQMpnSzLmHmkva-19">
          <mxGeometry x="-0.106" y="1" relative="1" as="geometry">
            <mxPoint x="19" as="offset" />
          </mxGeometry>
        </mxCell>
        <mxCell id="K9HgkhQQMpnSzLmHmkva-20" value="" style="endArrow=classic;html=1;rounded=0;labelBackgroundColor=none;fontColor=default;" edge="1" parent="1" source="K9HgkhQQMpnSzLmHmkva-3" target="K9HgkhQQMpnSzLmHmkva-2">
          <mxGeometry width="50" height="50" relative="1" as="geometry">
            <mxPoint x="360" y="420" as="sourcePoint" />
            <mxPoint x="410" y="370" as="targetPoint" />
          </mxGeometry>
        </mxCell>
        <mxCell id="K9HgkhQQMpnSzLmHmkva-23" value="ERRO" style="edgeLabel;html=1;align=center;verticalAlign=middle;resizable=0;points=[];labelBackgroundColor=none;" vertex="1" connectable="0" parent="K9HgkhQQMpnSzLmHmkva-20">
          <mxGeometry x="0.0816" relative="1" as="geometry">
            <mxPoint x="25" y="6" as="offset" />
          </mxGeometry>
        </mxCell>
        <mxCell id="K9HgkhQQMpnSzLmHmkva-25" value="" style="endArrow=classic;html=1;rounded=0;entryX=0;entryY=0;entryDx=0;entryDy=0;labelBackgroundColor=none;fontColor=default;" edge="1" parent="1" target="K9HgkhQQMpnSzLmHmkva-1">
          <mxGeometry width="50" height="50" relative="1" as="geometry">
            <mxPoint x="140" y="310" as="sourcePoint" />
            <mxPoint x="410" y="460" as="targetPoint" />
          </mxGeometry>
        </mxCell>
        <mxCell id="K9HgkhQQMpnSzLmHmkva-27" value="" style="curved=1;endArrow=classic;html=1;rounded=0;exitX=0;exitY=1;exitDx=0;exitDy=0;" edge="1" parent="1" source="K9HgkhQQMpnSzLmHmkva-1" target="K9HgkhQQMpnSzLmHmkva-1">
          <mxGeometry width="50" height="50" relative="1" as="geometry">
            <mxPoint x="100" y="440" as="sourcePoint" />
            <mxPoint x="170" y="380" as="targetPoint" />
            <Array as="points">
              <mxPoint x="160" y="420" />
              <mxPoint x="130" y="400" />
            </Array>
          </mxGeometry>
        </mxCell>
        <mxCell id="K9HgkhQQMpnSzLmHmkva-31" value="12V" style="edgeLabel;html=1;align=center;verticalAlign=middle;resizable=0;points=[];" vertex="1" connectable="0" parent="K9HgkhQQMpnSzLmHmkva-27">
          <mxGeometry x="-0.4874" y="-5" relative="1" as="geometry">
            <mxPoint x="-31" y="-12" as="offset" />
          </mxGeometry>
        </mxCell>
        <mxCell id="K9HgkhQQMpnSzLmHmkva-28" value="" style="curved=1;endArrow=classic;html=1;rounded=0;exitX=1;exitY=1;exitDx=0;exitDy=0;entryX=1;entryY=0.5;entryDx=0;entryDy=0;" edge="1" parent="1" source="K9HgkhQQMpnSzLmHmkva-3" target="K9HgkhQQMpnSzLmHmkva-3">
          <mxGeometry width="50" height="50" relative="1" as="geometry">
            <mxPoint x="578" y="420" as="sourcePoint" />
            <mxPoint x="600" y="456" as="targetPoint" />
            <Array as="points">
              <mxPoint x="620" y="420" />
              <mxPoint x="640" y="380" />
            </Array>
          </mxGeometry>
        </mxCell>
        <mxCell id="K9HgkhQQMpnSzLmHmkva-32" value="6V" style="edgeLabel;html=1;align=center;verticalAlign=middle;resizable=0;points=[];" vertex="1" connectable="0" parent="K9HgkhQQMpnSzLmHmkva-28">
          <mxGeometry x="-0.061" y="2" relative="1" as="geometry">
            <mxPoint x="13" y="6" as="offset" />
          </mxGeometry>
        </mxCell>
        <mxCell id="K9HgkhQQMpnSzLmHmkva-29" value="" style="curved=1;endArrow=classic;html=1;rounded=0;" edge="1" parent="1" source="K9HgkhQQMpnSzLmHmkva-4" target="K9HgkhQQMpnSzLmHmkva-4">
          <mxGeometry width="50" height="50" relative="1" as="geometry">
            <mxPoint x="410" y="320" as="sourcePoint" />
            <mxPoint x="300" y="290" as="targetPoint" />
            <Array as="points">
              <mxPoint x="390" y="290" />
              <mxPoint x="340" y="300" />
            </Array>
          </mxGeometry>
        </mxCell>
        <mxCell id="K9HgkhQQMpnSzLmHmkva-30" value="9V" style="edgeLabel;html=1;align=center;verticalAlign=middle;resizable=0;points=[];" vertex="1" connectable="0" parent="K9HgkhQQMpnSzLmHmkva-29">
          <mxGeometry x="-0.2637" y="5" relative="1" as="geometry">
            <mxPoint x="-14" y="-16" as="offset" />
          </mxGeometry>
        </mxCell>
      </root>
    </mxGraphModel>
  </diagram>
</mxfile>
